<svg width="37" height="32" viewBox="0 0 37 32" fill="none" xmlns="http://www.w3.org/2000/svg">
<path d="M3.25016 31.6086C2.55572 31.8864 1.896 31.8253 1.271 31.4253C0.645996 31.0267 0.333496 30.4454 0.333496 29.6815V21.9211C0.333496 21.435 0.472385 21.001 0.750163 20.619C1.02794 20.2371 1.40988 19.994 1.896 19.8899L17.0002 16.1399L1.896 12.3899C1.40988 12.2857 1.02794 12.0426 0.750163 11.6607C0.472385 11.2788 0.333496 10.8447 0.333496 10.3586V2.5982C0.333496 1.83431 0.645996 1.25237 1.271 0.852366C1.896 0.453755 2.55572 0.393338 3.25016 0.671115L35.3335 14.2128C36.2015 14.5947 36.6356 15.2371 36.6356 16.1399C36.6356 17.0426 36.2015 17.685 35.3335 18.0669L3.25016 31.6086Z" fill="white"/>
</svg>
